<svg width="200" height="200" viewBox="0 0 200 200" fill="none" xmlns="http://www.w3.org/2000/svg">
<path d="M47.5493 4.01807V11.1909V178.925M47.5493 4.01807L155.693 24.433L160.659 192.305M47.5493 4.01807L39.8247 10.0874V183.339M47.5493 178.925C79.7631 182.578 141.691 189.619 155.693 191.277C157.2 191.456 158.152 191.572 158.452 191.615C159.662 191.788 160.36 192.028 160.659 192.305M47.5493 178.925L39.8247 183.339M39.8247 183.339C74.2175 187.201 144.327 195.036 149.624 195.477C150.523 195.552 151.412 195.546 152.267 195.477C156.625 195.128 161.86 193.418 160.659 192.305" stroke="#1A0404" stroke-width="2"/>
<path fill-rule="evenodd" clip-rule="evenodd" d="M61.895 34.0029L67.9643 50.9172L62.4468 49.8137L70.1907 70.359C72.2138 70.7268 75.8613 71.269 79.5512 71.884C84.2195 72.662 95.1794 70.2287 95.1794 57.5383C95.1794 44.8479 86.7993 38.4542 78.2174 36.8893L61.895 34.0029ZM74.5854 64.1594V43.7444L85.0688 45.446V49.262L78.9994 48.4497V52.8417L84.25 53.6746V57.5383L78.9994 56.7793V64.7111L74.5854 64.1594Z" fill="#F72A30"/>
<rect width="83.5309" height="6" transform="matrix(0.991445 0.130526 0 1 62 93)" fill="#F72A30"/>
<rect width="83.5309" height="6" transform="matrix(0.991445 0.130526 0 1 62 106)" fill="#F72A30"/>
<rect width="83.5309" height="6" transform="matrix(0.991445 0.130526 0 1 62 119)" fill="#F72A30"/>
<rect width="83.5309" height="6" transform="matrix(0.991445 0.130526 0 1 62 132)" fill="#F72A30"/>
</svg>
