<svg width="200" height="200" viewBox="0 0 200 200" fill="none" xmlns="http://www.w3.org/2000/svg">
<path d="M127.817 159.432V124.464C127.817 110.866 120.012 102.721 108.477 105.038C98.8071 106.981 91.382 120.579 91.382 136.12L127.817 159.432Z" fill="#F72A30"/>
<path d="M91.0713 143.891V173.03L127.817 159.432L91.382 136.12C91.1769 138.576 91.0713 141.167 91.0713 143.891Z" fill="#F72A30"/>
<path d="M127.817 159.432C127.817 152.956 127.817 136.897 127.817 124.464M127.817 159.432L91.0713 173.03M127.817 159.432L91.382 136.12M127.817 159.432V124.464M127.817 124.464C127.817 110.866 120.012 102.721 108.477 105.038C98.8071 106.981 91.382 120.579 91.382 136.12M91.0713 143.891C91.0713 162.54 91.0713 170.44 91.0713 173.03M91.0713 143.891C91.0713 141.167 91.1769 138.576 91.382 136.12M91.0713 143.891V173.03" stroke="#1A0404" stroke-width="2"/>
<path d="M21.4284 97.1429L57.1427 121.429M21.4284 97.1429L49.9999 161.429L85.7141 187.143M21.4284 97.1429L42.857 90M57.1427 121.429L85.7141 187.143M57.1427 121.429L79.9999 112.857M85.7141 187.143L118.571 174.286C168.571 157.143 187.143 94.2857 175.714 61.4286C171.848 50.3125 165.073 43.26 157.143 39.2151M79.9999 112.857L57.1427 57.1429M79.9999 112.857L42.857 90M57.1427 57.1429L18.5713 34.2857M57.1427 57.1429C72.3808 52.381 106.571 41.7143 121.428 37.1429C132.321 33.7913 145.894 33.4774 157.143 39.2151M18.5713 34.2857L42.857 90M18.5713 34.2857C32.3808 30.4762 64.2856 21.7143 81.4284 17.1429C102.857 11.4286 118.571 15.5731 157.143 39.2151" stroke="#1A0404" stroke-width="2"/>
</svg>
