<svg width="200" height="200" viewBox="0 0 200 200" fill="none" xmlns="http://www.w3.org/2000/svg">
<path d="M99.7166 50.2959L148.921 90.72V136.296L99.7166 177.588L51.1211 136.296V90.72L99.7166 50.2959Z" fill="#F72A30"/>
<path d="M34.8203 74.42L100.02 126.58M34.8203 74.42L99.4992 19L165.22 74.42M34.8203 74.42V123.32L100.02 178.169M100.02 126.58L165.22 74.42M100.02 126.58V178.169M165.22 74.42V123.32L100.02 178.169" stroke="#1A0404" stroke-width="2"/>
<path d="M73.9402 125.013L62.9093 116.8L8.74023 162.48M73.9402 125.013V136.876L19.6475 182M73.9402 125.013L14.239 172.412" stroke="#1A0404" stroke-width="2" stroke-linecap="round"/>
<path d="M126.1 125.013L137.131 116.8L191.253 162.44M126.1 125.013V136.876L180.393 182M126.1 125.013L184.164 171.879" stroke="#1A0404" stroke-width="2" stroke-linecap="round"/>
</svg>
