<svg width="200" height="200" viewBox="0 0 200 200" fill="none" xmlns="http://www.w3.org/2000/svg">
<path d="M66.403 95.2299C60.9189 96.2794 55.5798 99.5018 52 103.5C52 106.833 52 110.167 52 113.5L94.2385 153.758V176.588C87.0483 179.478 79.3021 181 71.3163 181C37.5067 181 10 153.597 10 119.915C10 86.2327 10 130.767 10 97.0851C10 63.403 37.5067 36 71.3163 36C81.8697 36 94.5571 38 101.085 43.6788C115.838 56.5137 129.469 70.8319 143.599 84.3489C146.98 87.9006 151 92 151.5 98.5V118.5C151.5 129.547 141.414 137.881 130.871 137.881C126.095 137.881 121.33 136.004 117.783 132.278L88.4098 101.423C82.548 96.0402 74.5163 93.6779 66.403 95.2299Z" fill="#F72A30"/>
<path d="M106.232 41.3953C113.378 38.5149 121.08 37 129.018 37L129.013 37.0051C162.641 37.0051 190 64.3342 190 97.9256M106.232 41.3953V63.5491L146.007 101.64C146.007 101.64 143.731 99.563 146.002 101.647C148.273 103.731 150.161 106.226 151.543 109.013M106.232 41.3953L146.007 79.4858L146.002 79.4934C151.546 84.5802 154.802 92.1117 154.013 100.373C153.722 103.429 152.864 106.348 151.543 109.013M190 97.9256C190 131.517 162.641 158.846 129.013 158.846C118.534 158.846 108.408 156.184 99.4452 151.208C90.4828 146.233 57.1337 110.635 57.1337 110.635C54.5693 107.915 52.6385 104.468 51.9999 101M190 97.9256V120.079C190 153.671 162.641 181 129.013 181C118.534 181 108.408 178.338 99.4452 173.362C90.4828 168.387 57.1388 132.781 57.1388 132.781L57.1337 132.789C54.6387 130.142 53.037 126.914 52.364 123.547C51.6911 120.18 51.9999 101 51.9999 101M151.543 109.013C148.144 115.873 141.678 121.049 133.908 122.542C125.835 124.092 117.844 121.736 112.011 116.363L82.7986 85.5961C75.903 78.3331 64.3665 78.1102 57.1946 85.1604C52.1503 90.8887 51.9999 97.8444 51.9999 101" stroke="#1A0404" stroke-width="2"/>
</svg>
