<svg width="120" height="120" viewBox="0 0 120 120" fill="none" xmlns="http://www.w3.org/2000/svg">
<path fill-rule="evenodd" clip-rule="evenodd" d="M21.9375 52.75H2L22.3724 105.136C27.4751 96.7702 34.4012 89.9608 42.5729 85.6042C36.7816 79.8333 33.175 71.7053 33.175 62.7004C33.175 45.1928 46.8079 31 63.625 31C80.4421 31 94.075 45.1928 94.075 62.7004C94.075 71.7053 90.4685 79.8333 84.6771 85.6042C91.2351 89.1005 96.9908 94.1764 101.646 100.369C111.769 89.9277 118 75.6915 118 60C118 27.9675 92.0325 2 60 2H2L21.9375 52.75ZM90.9921 109.034C84.0562 99.9283 74.1595 94.4008 63.625 94.4008C49.9755 94.4008 37.3969 103.68 30.9421 118H60C71.3973 118 82.0268 114.713 90.9921 109.034ZM80.5417 62.7004C80.5417 72.4269 72.9678 80.3117 63.625 80.3117C54.2822 80.3117 46.7083 72.4269 46.7083 62.7004C46.7083 52.9739 54.2822 45.0891 63.625 45.0891C72.9678 45.0891 80.5417 52.9739 80.5417 62.7004Z" fill="#F72A30"/>
</svg>
