<?xml version="1.0" encoding="UTF-8"?>
<svg xmlns="http://www.w3.org/2000/svg" xmlns:xlink="http://www.w3.org/1999/xlink" width="164px" height="26px" viewBox="0 0 161 26" version="1.1">
<defs>
<clipPath id="clip1">
  <path d="M 0 0.316406 L 14 0.316406 L 14 25.683594 L 0 25.683594 Z M 0 0.316406 "/>
</clipPath>
<clipPath id="clip2">
  <path d="M 18 0.316406 L 24 0.316406 L 24 25.683594 L 18 25.683594 Z M 18 0.316406 "/>
</clipPath>
<clipPath id="clip3">
  <path d="M 28 0.316406 L 48 0.316406 L 48 25.683594 L 28 25.683594 Z M 28 0.316406 "/>
</clipPath>
<clipPath id="clip4">
  <path d="M 69 0.316406 L 91 0.316406 L 91 25.683594 L 69 25.683594 Z M 69 0.316406 "/>
</clipPath>
<clipPath id="clip5">
  <path d="M 92 0.316406 L 122 0.316406 L 122 25.683594 L 92 25.683594 Z M 92 0.316406 "/>
</clipPath>
<clipPath id="clip6">
  <path d="M 122 0.316406 L 142 0.316406 L 142 25.683594 L 122 25.683594 Z M 122 0.316406 "/>
</clipPath>
<clipPath id="clip7">
  <path d="M 140 0.316406 L 161 0.316406 L 161 25.683594 L 140 25.683594 Z M 140 0.316406 "/>
</clipPath>
<clipPath id="clip8">
  <path d="M 53 0.316406 L 67 0.316406 L 67 25.683594 L 53 25.683594 Z M 53 0.316406 "/>
</clipPath>
</defs>
<g id="surface1">
<g clip-path="url(#clip1)" clip-rule="nonzero">
<path style=" stroke:none;fill-rule:nonzero;fill:rgb(96.862745%,16.470588%,18.823529%);fill-opacity:1;" d="M 5.265625 5.859375 L 5.265625 10.292969 C 5.265625 10.429688 5.382812 10.539062 5.527344 10.539062 L 11.707031 10.539062 C 11.851562 10.539062 11.96875 10.648438 11.96875 10.78125 L 11.96875 15.214844 C 11.96875 15.347656 11.851562 15.457031 11.707031 15.457031 L 5.523438 15.457031 C 5.378906 15.457031 5.261719 15.566406 5.261719 15.703125 L 5.261719 25.054688 C 5.261719 25.191406 5.144531 25.300781 5 25.300781 L 0.261719 25.300781 C 0.117188 25.300781 0 25.191406 0 25.054688 L 0 0.941406 C 0 0.804688 0.117188 0.695312 0.261719 0.695312 L 12.882812 0.695312 C 13.027344 0.695312 13.144531 0.804688 13.144531 0.941406 L 13.144531 5.371094 C 13.144531 5.507812 13.027344 5.617188 12.882812 5.617188 L 5.527344 5.617188 C 5.378906 5.617188 5.265625 5.726562 5.265625 5.859375 Z M 5.265625 5.859375 "/>
</g>
<g clip-path="url(#clip2)" clip-rule="nonzero">
<path style=" stroke:none;fill-rule:nonzero;fill:rgb(96.862745%,16.470588%,18.823529%);fill-opacity:1;" d="M 18.054688 25.058594 L 18.054688 0.941406 C 18.054688 0.804688 18.175781 0.695312 18.320312 0.695312 L 23.058594 0.695312 C 23.203125 0.695312 23.320312 0.804688 23.320312 0.941406 L 23.320312 25.058594 C 23.320312 25.195312 23.203125 25.304688 23.058594 25.304688 L 18.320312 25.304688 C 18.175781 25.304688 18.054688 25.195312 18.054688 25.058594 Z M 18.054688 25.058594 "/>
</g>
<g clip-path="url(#clip3)" clip-rule="nonzero">
<path style=" stroke:none;fill-rule:nonzero;fill:rgb(96.862745%,16.470588%,18.823529%);fill-opacity:1;" d="M 34.101562 10.878906 C 34.101562 11.011719 34.222656 11.121094 34.367188 11.121094 L 38.742188 11.121094 C 42.3125 11.121094 42.3125 5.617188 38.742188 5.617188 L 34.367188 5.617188 C 34.222656 5.617188 34.101562 5.726562 34.101562 5.859375 Z M 41.871094 25.175781 L 36.714844 16.039062 C 36.671875 15.957031 36.582031 15.90625 36.484375 15.90625 L 34.363281 15.90625 C 34.21875 15.90625 34.101562 16.015625 34.101562 16.152344 L 34.101562 25.058594 C 34.101562 25.195312 33.980469 25.304688 33.835938 25.304688 L 29.101562 25.304688 C 28.957031 25.304688 28.835938 25.195312 28.835938 25.058594 L 28.835938 0.941406 C 28.835938 0.804688 28.957031 0.695312 29.101562 0.695312 L 39.222656 0.695312 C 48.480469 0.695312 49.503906 12.726562 42.101562 15.0625 C 41.945312 15.109375 41.875 15.28125 41.957031 15.417969 L 47.691406 24.941406 C 47.789062 25.105469 47.664062 25.304688 47.464844 25.304688 L 42.105469 25.304688 C 42.003906 25.304688 41.917969 25.253906 41.871094 25.175781 Z M 41.871094 25.175781 "/>
</g>
<g clip-path="url(#clip4)" clip-rule="nonzero">
<path style=" stroke:none;fill-rule:nonzero;fill:rgb(96.862745%,16.470588%,18.823529%);fill-opacity:1;" d="M 82.234375 20.398438 L 77.816406 20.398438 C 77.671875 20.398438 77.554688 20.292969 77.554688 20.15625 L 77.554688 15.722656 C 77.554688 15.585938 77.671875 15.476562 77.816406 15.476562 L 82.234375 15.476562 C 82.957031 15.476562 83.597656 15.722656 84.066406 16.128906 C 84.238281 16.28125 84.125 16.554688 83.886719 16.554688 L 80.957031 16.554688 C 80.882812 16.554688 80.808594 16.585938 80.757812 16.636719 C 80.394531 17.027344 80.6875 17.476562 81.085938 17.476562 L 84.84375 17.476562 C 84.84375 17.476562 84.84375 17.476562 84.84375 17.480469 L 86.597656 17.480469 C 86.726562 17.480469 86.84375 17.570312 86.855469 17.691406 C 86.867188 17.832031 86.753906 17.945312 86.609375 17.945312 L 85.132812 17.945312 C 84.996094 17.945312 84.886719 18.039062 84.871094 18.164062 C 84.746094 19.425781 83.652344 20.398438 82.234375 20.398438 Z M 75.347656 6.847656 L 77.296875 6.847656 C 77.441406 6.847656 77.558594 6.738281 77.558594 6.605469 L 77.558594 5.84375 C 77.558594 5.707031 77.675781 5.597656 77.820312 5.597656 L 82.238281 5.597656 C 83.453125 5.597656 84.285156 6.3125 84.5625 7.308594 C 84.605469 7.460938 84.480469 7.617188 84.3125 7.617188 L 83.507812 7.617188 C 83.429688 7.617188 83.359375 7.648438 83.308594 7.699219 C 82.945312 8.089844 83.234375 8.539062 83.636719 8.539062 L 84.628906 8.539062 C 84.628906 8.542969 84.628906 8.542969 84.628906 8.542969 L 86.089844 8.542969 C 86.222656 8.542969 86.339844 8.632812 86.351562 8.753906 C 86.363281 8.890625 86.25 9.003906 86.105469 9.003906 L 84.691406 9.003906 C 84.582031 9.003906 84.488281 9.066406 84.449219 9.15625 C 84.089844 9.972656 83.316406 10.550781 82.238281 10.550781 L 77.824219 10.550781 C 77.679688 10.550781 77.5625 10.441406 77.5625 10.308594 L 77.5625 7.550781 C 77.5625 7.417969 77.445312 7.308594 77.300781 7.308594 L 75.335938 7.308594 C 75.191406 7.308594 75.078125 7.191406 75.089844 7.058594 C 75.097656 6.9375 75.21875 6.847656 75.347656 6.847656 Z M 84.925781 22.441406 L 88.707031 22.441406 C 88.789062 22.441406 88.867188 22.402344 88.917969 22.339844 C 89.875 21.113281 90.445312 19.589844 90.445312 17.921875 C 90.445312 16.101562 89.5625 14.308594 88 13.1875 C 87.867188 13.089844 87.867188 12.902344 88 12.800781 C 89.457031 11.707031 90.082031 9.894531 90.15625 8.144531 C 90.265625 3.804688 87.355469 0.671875 82.679688 0.671875 L 72.519531 0.671875 C 72.375 0.671875 72.257812 0.78125 72.257812 0.917969 L 72.257812 21.730469 C 72.257812 21.863281 72.136719 21.972656 71.996094 21.972656 L 69.488281 21.972656 C 69.414062 21.972656 69.339844 22.007812 69.292969 22.058594 C 68.925781 22.449219 69.214844 22.894531 69.621094 22.894531 L 72.257812 22.894531 L 72.257812 22.902344 L 75.128906 22.902344 C 75.261719 22.902344 75.375 22.992188 75.386719 23.113281 C 75.402344 23.25 75.285156 23.363281 75.140625 23.363281 L 72.519531 23.363281 C 72.375 23.363281 72.257812 23.472656 72.257812 23.609375 L 72.257812 25.070312 C 72.257812 25.203125 72.375 25.3125 72.519531 25.3125 L 82.675781 25.3125 C 84.726562 25.3125 86.601562 24.558594 87.996094 23.316406 C 88.164062 23.164062 88.050781 22.894531 87.8125 22.894531 L 84.914062 22.894531 C 84.769531 22.894531 84.652344 22.78125 84.664062 22.644531 C 84.675781 22.53125 84.792969 22.441406 84.925781 22.441406 Z M 84.925781 22.441406 "/>
</g>
<g clip-path="url(#clip5)" clip-rule="nonzero">
<path style=" stroke:none;fill-rule:nonzero;fill:rgb(96.862745%,16.470588%,18.823529%);fill-opacity:1;" d="M 119.8125 13.503906 L 116.660156 13.503906 C 116.242188 13.503906 115.882812 13.789062 115.824219 14.175781 C 115.800781 14.332031 115.773438 14.488281 115.742188 14.640625 C 115.640625 15.136719 115.179688 15.496094 114.640625 15.496094 L 109.367188 15.496094 C 109.09375 15.496094 108.871094 15.703125 108.871094 15.960938 C 108.871094 16.214844 109.09375 16.421875 109.367188 16.421875 L 115.148438 16.421875 C 115.148438 16.425781 115.144531 16.425781 115.144531 16.429688 L 116.132812 16.429688 C 116.261719 16.429688 116.378906 16.519531 116.390625 16.636719 C 116.40625 16.773438 116.289062 16.886719 116.144531 16.886719 L 115.964844 16.886719 C 115.339844 16.886719 114.761719 17.179688 114.398438 17.65625 C 113.101562 19.386719 110.976562 20.589844 108.015625 20.589844 C 102.59375 20.589844 99.964844 16.558594 100.125 12.648438 C 100.15625 11.898438 99.519531 11.273438 98.714844 11.273438 L 97.246094 11.273438 C 97.113281 11.273438 96.996094 11.183594 96.988281 11.066406 C 96.972656 10.925781 97.089844 10.816406 97.234375 10.816406 L 99.144531 10.816406 C 99.863281 10.816406 100.503906 10.40625 100.777344 9.785156 C 101.859375 7.304688 104.273438 5.382812 108.015625 5.382812 C 112.390625 5.382812 114.949219 8.003906 115.6875 11.074219 C 115.8125 11.609375 115.378906 12.117188 114.796875 12.117188 L 114.171875 12.117188 C 114.097656 12.117188 114.023438 12.148438 113.976562 12.199219 C 113.613281 12.589844 113.898438 13.035156 114.304688 13.035156 L 115.914062 13.035156 C 115.914062 13.039062 115.914062 13.042969 115.914062 13.042969 L 119.824219 13.042969 C 119.96875 13.042969 120.085938 13.160156 120.070312 13.292969 C 120.0625 13.414062 119.945312 13.503906 119.8125 13.503906 Z M 120.5625 8.324219 L 118.574219 8.324219 C 118.445312 8.324219 118.328125 8.234375 118.316406 8.117188 C 118.300781 7.980469 118.417969 7.867188 118.5625 7.867188 L 119.421875 7.867188 C 119.96875 7.867188 120.324219 7.324219 120.074219 6.867188 C 118.058594 3.121094 114.039062 0.316406 108.015625 0.316406 C 102.875 0.316406 99.191406 2.359375 96.96875 5.289062 C 96.546875 5.847656 95.851562 6.175781 95.117188 6.175781 L 93.207031 6.175781 C 93.132812 6.175781 93.058594 6.207031 93.011719 6.257812 C 92.648438 6.648438 92.9375 7.097656 93.339844 7.097656 L 95.835938 7.097656 C 95.835938 7.097656 95.832031 7.097656 95.832031 7.101562 L 98.847656 7.101562 C 98.980469 7.101562 99.09375 7.191406 99.109375 7.3125 C 99.121094 7.453125 99.003906 7.566406 98.859375 7.566406 L 96.75 7.566406 C 96.03125 7.566406 95.398438 8 95.171875 8.636719 C 92.5625 16.03125 96.84375 25.679688 108.015625 25.679688 C 119.265625 25.679688 123.527344 15.902344 120.808594 8.488281 C 120.769531 8.394531 120.671875 8.324219 120.5625 8.324219 Z M 120.5625 8.324219 "/>
</g>
<g clip-path="url(#clip6)" clip-rule="nonzero">
<path style=" stroke:none;fill-rule:nonzero;fill:rgb(96.862745%,16.470588%,18.823529%);fill-opacity:1;" d="M 138.460938 23.324219 L 139.988281 23.324219 C 140.726562 23.324219 141.328125 22.761719 141.328125 22.066406 L 141.328125 20.632812 C 141.328125 20.496094 141.210938 20.386719 141.066406 20.386719 L 133.234375 20.386719 C 133.089844 20.386719 132.972656 20.277344 132.972656 20.144531 L 132.972656 9.957031 C 132.972656 9.550781 132.617188 9.222656 132.1875 9.222656 L 131.648438 9.222656 C 131.515625 9.222656 131.402344 9.132812 131.386719 9.011719 C 131.375 8.875 131.488281 8.761719 131.632812 8.761719 L 132.710938 8.761719 C 132.855469 8.761719 132.972656 8.652344 132.972656 8.519531 L 132.972656 0.941406 C 132.972656 0.804688 132.855469 0.695312 132.710938 0.695312 L 127.972656 0.695312 C 127.828125 0.695312 127.707031 0.804688 127.707031 0.941406 L 127.707031 2.003906 C 127.707031 2.417969 127.351562 2.75 126.90625 2.75 L 123.136719 2.75 C 123.0625 2.75 122.992188 2.78125 122.941406 2.835938 C 122.578125 3.226562 122.867188 3.675781 123.269531 3.675781 L 127.710938 3.675781 L 127.710938 3.683594 L 128.78125 3.683594 C 128.914062 3.683594 129.027344 3.773438 129.039062 3.890625 C 129.054688 4.027344 128.9375 4.140625 128.796875 4.140625 L 127.972656 4.140625 C 127.828125 4.140625 127.710938 4.25 127.710938 4.386719 L 127.710938 12.769531 C 127.710938 12.90625 127.59375 13.015625 127.449219 13.015625 L 125.875 13.015625 C 125.800781 13.015625 125.726562 13.046875 125.679688 13.097656 C 125.316406 13.488281 125.601562 13.9375 126.007812 13.9375 L 127.710938 13.9375 L 127.710938 13.941406 L 129.261719 13.941406 C 129.390625 13.941406 129.507812 14.03125 129.519531 14.152344 C 129.535156 14.289062 129.417969 14.402344 129.273438 14.402344 L 128.523438 14.402344 C 128.074219 14.402344 127.710938 14.742188 127.710938 15.160156 L 127.710938 20.210938 C 127.710938 20.664062 127.320312 21.03125 126.839844 21.03125 L 123.140625 21.03125 C 123.066406 21.03125 122.992188 21.0625 122.945312 21.113281 C 122.578125 21.503906 122.867188 21.949219 123.273438 21.949219 L 127.714844 21.949219 L 127.714844 21.957031 L 128.785156 21.957031 C 128.914062 21.957031 129.03125 22.046875 129.042969 22.167969 C 129.058594 22.304688 128.941406 22.417969 128.796875 22.417969 L 128.070312 22.417969 C 127.871094 22.417969 127.714844 22.566406 127.714844 22.746094 C 127.714844 22.929688 127.558594 23.078125 127.359375 23.078125 L 124.945312 23.078125 C 124.871094 23.078125 124.800781 23.109375 124.75 23.160156 C 124.386719 23.554688 124.675781 24 125.078125 24 L 127.714844 24 L 127.714844 24.007812 L 130.585938 24.007812 C 130.71875 24.007812 130.832031 24.097656 130.847656 24.21875 C 130.859375 24.355469 130.746094 24.46875 130.601562 24.46875 L 128.15625 24.46875 C 127.910156 24.46875 127.714844 24.652344 127.714844 24.878906 C 127.714844 25.109375 127.910156 25.289062 128.15625 25.289062 L 141.074219 25.289062 C 141.21875 25.289062 141.339844 25.183594 141.339844 25.046875 L 141.339844 24.011719 C 141.339844 23.878906 141.21875 23.769531 141.074219 23.769531 L 138.453125 23.769531 C 138.308594 23.769531 138.195312 23.652344 138.207031 23.519531 C 138.210938 23.410156 138.328125 23.324219 138.460938 23.324219 Z M 138.460938 23.324219 "/>
</g>
<g clip-path="url(#clip7)" clip-rule="nonzero">
<path style=" stroke:none;fill-rule:nonzero;fill:rgb(96.862745%,16.470588%,18.823529%);fill-opacity:1;" d="M 158.128906 1.875 L 160.519531 1.875 C 160.785156 1.875 160.996094 1.675781 160.996094 1.429688 L 160.996094 0.957031 C 160.996094 0.820312 160.878906 0.710938 160.734375 0.710938 L 140.722656 0.710938 C 140.449219 0.710938 140.226562 0.917969 140.226562 1.175781 C 140.226562 1.429688 140.445312 1.636719 140.722656 1.636719 L 142.625 1.636719 L 142.625 1.644531 L 146.230469 1.644531 C 146.363281 1.644531 146.476562 1.734375 146.488281 1.855469 C 146.503906 1.992188 146.386719 2.105469 146.242188 2.105469 L 143.230469 2.105469 C 142.894531 2.105469 142.625 2.359375 142.625 2.671875 L 142.625 3.425781 C 142.625 3.8125 142.960938 4.128906 143.378906 4.128906 L 144 4.128906 C 144.132812 4.128906 144.246094 4.21875 144.261719 4.335938 C 144.273438 4.476562 144.160156 4.589844 144.015625 4.589844 L 143.21875 4.589844 C 142.890625 4.589844 142.625 4.835938 142.625 5.144531 C 142.625 5.398438 142.84375 5.601562 143.113281 5.601562 L 148.914062 5.601562 C 149.058594 5.601562 149.179688 5.707031 149.179688 5.84375 L 149.179688 9.355469 C 149.179688 9.488281 149.058594 9.597656 148.914062 9.597656 L 144.515625 9.597656 C 144.441406 9.597656 144.367188 9.628906 144.320312 9.679688 C 143.953125 10.074219 144.242188 10.519531 144.648438 10.519531 L 149.179688 10.519531 L 149.179688 10.527344 L 150.15625 10.527344 C 150.289062 10.527344 150.402344 10.617188 150.414062 10.734375 C 150.429688 10.871094 150.3125 10.984375 150.167969 10.984375 L 149.441406 10.984375 C 149.296875 10.984375 149.179688 11.09375 149.179688 11.230469 L 149.179688 17.65625 C 149.179688 17.789062 149.058594 17.898438 148.914062 17.898438 L 147.78125 17.898438 C 147.507812 17.898438 147.285156 18.105469 147.285156 18.359375 C 147.285156 18.613281 147.503906 18.824219 147.78125 18.824219 L 149.179688 18.824219 L 149.179688 18.832031 L 151.550781 18.832031 C 151.683594 18.832031 151.796875 18.921875 151.8125 19.042969 C 151.824219 19.179688 151.710938 19.292969 151.566406 19.292969 L 149.441406 19.292969 C 149.296875 19.292969 149.179688 19.402344 149.179688 19.535156 L 149.179688 21.230469 C 149.179688 21.367188 149.058594 21.476562 148.914062 21.476562 L 146.039062 21.476562 C 145.765625 21.476562 145.542969 21.683594 145.542969 21.9375 C 145.542969 22.191406 145.765625 22.402344 146.039062 22.402344 L 149.179688 22.402344 L 149.179688 22.40625 L 151.550781 22.40625 C 151.683594 22.40625 151.796875 22.496094 151.8125 22.617188 C 151.824219 22.753906 151.710938 22.867188 151.566406 22.867188 L 149.441406 22.867188 C 149.296875 22.867188 149.179688 22.976562 149.179688 23.109375 L 149.179688 25.042969 C 149.179688 25.179688 149.296875 25.289062 149.441406 25.289062 L 154.003906 25.289062 C 154.246094 25.289062 154.445312 25.105469 154.445312 24.878906 C 154.445312 24.648438 154.246094 24.464844 154.003906 24.464844 L 151.578125 24.464844 C 151.445312 24.464844 151.332031 24.375 151.320312 24.257812 C 151.304688 24.117188 151.421875 24.007812 151.566406 24.007812 L 153.550781 24.007812 C 154.042969 24.007812 154.445312 23.632812 154.445312 23.171875 L 154.445312 15.917969 C 154.445312 15.78125 154.324219 15.671875 154.179688 15.671875 L 153.472656 15.671875 C 153.339844 15.671875 153.226562 15.582031 153.214844 15.464844 C 153.199219 15.328125 153.316406 15.214844 153.460938 15.214844 L 154.179688 15.214844 C 154.324219 15.214844 154.445312 15.105469 154.445312 14.96875 L 154.445312 8.660156 C 154.445312 8.449219 154.261719 8.273438 154.03125 8.273438 L 151.578125 8.273438 C 151.445312 8.273438 151.332031 8.183594 151.320312 8.0625 C 151.304688 7.925781 151.421875 7.8125 151.566406 7.8125 L 153.292969 7.8125 C 153.929688 7.8125 154.445312 7.332031 154.445312 6.738281 L 154.445312 5.84375 C 154.445312 5.707031 154.5625 5.601562 154.707031 5.601562 L 160.738281 5.601562 C 160.882812 5.601562 161 5.492188 161 5.355469 L 161 5.03125 C 161 4.789062 160.785156 4.589844 160.523438 4.589844 L 160.066406 4.589844 C 159.9375 4.589844 159.816406 4.5 159.808594 4.375 C 159.796875 4.238281 159.910156 4.125 160.054688 4.125 L 160.472656 4.125 C 160.761719 4.125 161 3.902344 161 3.632812 L 161 2.738281 C 161 2.515625 160.808594 2.335938 160.574219 2.335938 L 158.117188 2.335938 C 157.972656 2.335938 157.859375 2.222656 157.871094 2.085938 C 157.878906 1.964844 157.996094 1.875 158.128906 1.875 Z M 158.128906 1.875 "/>
</g>
<g clip-path="url(#clip8)" clip-rule="nonzero">
<path style=" stroke:none;fill-rule:nonzero;fill:rgb(96.862745%,16.470588%,18.823529%);fill-opacity:1;" d="M 66.726562 25.058594 L 66.726562 20.628906 C 66.726562 20.492188 66.605469 20.382812 66.460938 20.382812 L 58.628906 20.382812 C 58.484375 20.382812 58.367188 20.273438 58.367188 20.140625 L 58.367188 15.707031 C 58.367188 15.570312 58.484375 15.460938 58.628906 15.460938 L 65.027344 15.460938 C 65.171875 15.460938 65.289062 15.351562 65.289062 15.21875 L 65.289062 13.476562 C 65.289062 13.472656 65.285156 13.472656 65.285156 13.46875 L 65.285156 12.53125 C 65.285156 12.53125 65.285156 12.53125 65.285156 12.527344 L 65.285156 10.785156 C 65.285156 10.652344 65.167969 10.542969 65.023438 10.542969 L 58.625 10.542969 C 58.480469 10.542969 58.363281 10.433594 58.363281 10.296875 L 58.363281 5.859375 C 58.363281 5.726562 58.480469 5.617188 58.625 5.617188 L 66.019531 5.617188 C 66.164062 5.617188 66.28125 5.507812 66.28125 5.371094 L 66.28125 0.941406 C 66.28125 0.804688 66.164062 0.695312 66.019531 0.695312 L 53.363281 0.695312 C 53.21875 0.695312 53.101562 0.804688 53.101562 0.941406 L 53.101562 6.417969 L 53.097656 6.417969 L 53.097656 7.367188 C 53.09375 7.375 53.09375 7.382812 53.09375 7.386719 L 53.089844 8.523438 L 53.097656 8.523438 L 53.097656 10.59375 L 53.101562 10.59375 L 53.101562 16.050781 L 53.097656 16.050781 L 53.101562 16.894531 L 53.101562 17.214844 C 53.101562 17.222656 53.097656 17.230469 53.09375 17.242188 L 53.089844 18.382812 L 53.101562 18.382812 L 53.101562 18.386719 C 53.101562 18.386719 53.101562 18.390625 53.105469 18.390625 L 53.109375 18.390625 L 53.109375 19.058594 C 53.109375 19.070312 53.101562 19.082031 53.101562 19.097656 L 53.101562 25.058594 C 53.101562 25.195312 53.21875 25.304688 53.363281 25.304688 L 66.460938 25.304688 C 66.605469 25.304688 66.726562 25.195312 66.726562 25.058594 Z M 66.726562 25.058594 "/>
</g>
</g>
</svg>
